<svg xmlns="http://www.w3.org/2000/svg" viewBox="0 0 1024 1024"><defs><style>.cls-1,.cls-4{fill:#fff;}.cls-1{opacity:0;}.cls-2{fill:#1b2024;}.cls-3{fill:#0b5673;}</style></defs><g id="Layer_2" data-name="Layer 2"><g id="Color"><rect class="cls-1" width="1024" height="1024"/><path class="cls-2" d="M843.08,645.6a6.32,6.32,0,0,1-6.3,6.3H171.9a6.32,6.32,0,0,1-6.3-6.3h0a6.32,6.32,0,0,1,6.3-6.3H836.78a6.32,6.32,0,0,1,6.3,6.3Z"/><path class="cls-2" d="M843.09,378.4a6.32,6.32,0,0,1-6.3,6.3H171.92a6.32,6.32,0,0,1-6.3-6.3h0a6.31,6.31,0,0,1,6.3-6.3H836.79a6.31,6.31,0,0,1,6.3,6.3Z"/><path class="cls-3" d="M246.21,375.78V648.22a29.85,29.85,0,0,0,14.93,25.85L497.07,810.29a29.88,29.88,0,0,0,29.86,0L762.86,674.07a29.85,29.85,0,0,0,14.93-25.85V375.78a29.85,29.85,0,0,0-14.93-25.85L526.93,213.71a29.88,29.88,0,0,0-29.86,0L261.14,349.93A29.85,29.85,0,0,0,246.21,375.78Z"/><path class="cls-2" d="M512.05,226.9h0m0,0L758.88,369.46V654.54L512,797.08,265.12,654.54V369.46L512,226.92M512,208a18.81,18.81,0,0,0-9.41,2.52l-247,142.59a18.84,18.84,0,0,0-9.41,16.3V654.59a18.84,18.84,0,0,0,9.41,16.3l247,142.59a18.83,18.83,0,0,0,18.82,0l247-142.59a18.84,18.84,0,0,0,9.41-16.3V369.41a18.84,18.84,0,0,0-9.41-16.3l-247-142.59A18.81,18.81,0,0,0,512,208Z"/><path class="cls-3" d="M276.23,393.11V630.89a29.85,29.85,0,0,0,14.93,25.85L497.07,775.63a29.88,29.88,0,0,0,29.86,0L732.84,656.74a29.85,29.85,0,0,0,14.93-25.85V393.11a29.85,29.85,0,0,0-14.93-25.85L526.93,248.37a29.88,29.88,0,0,0-29.86,0L291.16,367.26A29.85,29.85,0,0,0,276.23,393.11Z"/><path class="cls-2" d="M512,249a12.62,12.62,0,0,1,6.26,1.67l217,125.26a12.55,12.55,0,0,1,6.26,10.84V637.26a12.55,12.55,0,0,1-6.26,10.84l-217,125.26a12.57,12.57,0,0,1-12.52,0L288.79,648.1a12.55,12.55,0,0,1-6.26-10.84V386.74a12.55,12.55,0,0,1,6.26-10.84l217-125.26A12.62,12.62,0,0,1,512,249m0-6.31a18.81,18.81,0,0,0-9.41,2.52L285.64,370.45a18.79,18.79,0,0,0-9.41,16.29V637.26a18.79,18.79,0,0,0,9.41,16.29l217,125.27a18.83,18.83,0,0,0,18.82,0l217-125.27a18.79,18.79,0,0,0,9.41-16.29V386.74a18.79,18.79,0,0,0-9.41-16.29l-217-125.27a18.81,18.81,0,0,0-9.41-2.52Z"/><path class="cls-2" d="M638.89,690.21l-12.49,7.21V326.58l12.49,7.21ZM617,321.12l-12.48-7.2V710.08l12.48-7.2Zm43.87,25.33-12.48-7.2v345.5l12.48-7.2Zm21.94,12.67-12.49-7.21V672.09l12.49-7.21ZM595,308.46l-12.48-7.21v421.5L595,715.54Zm131.62,78.25a18.87,18.87,0,0,0-6.26-5.88l-6.23-3.59V646.76l6.23-3.59a18.87,18.87,0,0,0,6.26-5.88ZM573.08,295.8l-12.48-7.21V735.41l12.48-7.21Zm-21.94-12.67-12.48-7.21V748.08l12.48-7.21Zm153.55,88.65-12.48-7.2V659.42l12.48-7.2Zm-188-107.73V760a18.9,18.9,0,0,0,4.68-1.91l7.8-4.51V270.47l-7.8-4.51A18.9,18.9,0,0,0,516.73,264.05Zm-31.39,11.87-12.48,7.21V740.87l12.48,7.21ZM463.4,288.59l-12.48,7.21V728.2l12.48,7.21Zm-21.93,12.66L429,308.46V715.54l12.48,7.21Zm-21.94,12.67-12.48,7.2V702.88l12.48,7.2Zm87.74,446V264.05a18.9,18.9,0,0,0-4.68,1.91l-7.8,4.51V753.53l7.8,4.51A18.9,18.9,0,0,0,507.27,760ZM309.86,377.24l-6.23,3.59a18.87,18.87,0,0,0-6.26,5.88V637.29a18.87,18.87,0,0,0,6.26,5.88l6.23,3.59Zm43.87-25.33-12.49,7.21V664.88l12.49,7.21Zm-21.94,12.67-12.48,7.2V652.22l12.48,7.2Zm43.87-25.33-12.48,7.2v331.1l12.48,7.2Zm21.94-12.67-12.49,7.21V690.21l12.49,7.21Z"/><circle class="cls-3" cx="512" cy="512" r="197.88"/><path class="cls-2" d="M512,719.34a207.35,207.35,0,1,1,146.61-60.73A206,206,0,0,1,512,719.34Zm0-395.77a188.43,188.43,0,1,0,133.24,55.19A187.2,187.2,0,0,0,512,323.57Z"/><path class="cls-2" d="M459.82,349.11H564.18a171.72,171.72,0,0,0-104.36,0Z"/><path class="cls-2" d="M373.8,411.29q-2.91,4-5.59,8.12H655.79q-2.68-4.16-5.59-8.12Z"/><path class="cls-2" d="M408.15,376.14q-5.06,3.89-9.83,8.12H625.68q-4.77-4.25-9.83-8.12Z"/><path class="cls-2" d="M436.43,358.57q-7.51,3.71-14.6,8.12H602.17q-7.08-4.41-14.6-8.12Z"/><path class="cls-2" d="M388.51,393.71c-2.52,2.63-4.94,5.34-7.29,8.12H642.78c-2.35-2.78-4.77-5.49-7.29-8.12Z"/><path class="cls-2" d="M362.54,428.86q-2.22,4-4.25,8.12H665.71q-2-4.12-4.25-8.12Z"/><path class="cls-2" d="M343.69,481.58c-.48,2.69-.89,5.39-1.25,8.12H681.56c-.36-2.73-.77-5.43-1.25-8.12Z"/><path class="cls-2" d="M682.94,507.27c-.08-2.72-.21-5.43-.41-8.12H341.47c-.2,2.69-.33,5.4-.41,8.12Z"/><path class="cls-2" d="M347.83,464c-.78,2.68-1.5,5.38-2.15,8.12H678.32c-.65-2.74-1.37-5.44-2.15-8.12Z"/><path class="cls-2" d="M354,446.43c-1.11,2.68-2.15,5.38-3.13,8.12H673.11c-1-2.74-2-5.44-3.13-8.12Z"/><path class="cls-2" d="M345.68,551.87c.65,2.74,1.37,5.44,2.15,8.12H676.17c.78-2.68,1.5-5.38,2.15-8.12Z"/><path class="cls-2" d="M342.44,534.3c.36,2.73.77,5.43,1.25,8.12H680.31c.48-2.69.89-5.39,1.25-8.12Z"/><path class="cls-2" d="M350.89,569.45c1,2.74,2,5.44,3.13,8.12H670c1.11-2.68,2.15-5.38,3.13-8.12Z"/><path class="cls-2" d="M341.06,516.73c.08,2.72.21,5.43.41,8.12H682.53c.2-2.69.33-5.4.41-8.12Z"/><path class="cls-2" d="M459.82,674.89a171.72,171.72,0,0,0,104.36,0Z"/><path class="cls-2" d="M368.21,604.59q2.69,4.15,5.59,8.12H650.2q2.91-4,5.59-8.12Z"/><path class="cls-2" d="M381.22,622.17c2.35,2.78,4.77,5.49,7.29,8.12h247c2.52-2.63,4.94-5.34,7.29-8.12Z"/><path class="cls-2" d="M358.29,587q2,4.13,4.25,8.12H661.46q2.22-4,4.25-8.12Z"/><path class="cls-2" d="M587.57,665.43q7.51-3.7,14.6-8.12H421.83q7.08,4.41,14.6,8.12Z"/><path class="cls-2" d="M398.32,639.74q4.77,4.25,9.83,8.12h207.7q5.05-3.89,9.83-8.12Z"/><path class="cls-3" d="M907.3,391H135.6a13.69,13.69,0,0,0-13.69,13.7L103,619.3A13.7,13.7,0,0,0,116.7,633H888.4a13.69,13.69,0,0,0,13.69-13.7L921,404.7A13.7,13.7,0,0,0,907.3,391Z"/><path class="cls-2" d="M140.81,404.7h0m760.75,5.21L884,609.16a5.4,5.4,0,0,1-5.38,4.93H128.34a5.4,5.4,0,0,1-5.38-5.87l17-193.38a5.4,5.4,0,0,1,5.38-4.93H901.56M907.3,391H135.6a13.69,13.69,0,0,0-13.69,13.7L103,619.3A13.7,13.7,0,0,0,116.7,633H888.4a13.69,13.69,0,0,0,13.69-13.7L921,404.7A13.7,13.7,0,0,0,907.3,391Z"/><path class="cls-4" d="M304.47,433.11q10.06,0,9.07,6.62l-5.1,28.48c-.63,4.19-4.35,6.62-11.06,6.62H248.07c-6.37,0-10.4,2.2-11.06,6.62l-2.43,15.25c-.63,4.19,2.69,6.62,9.07,6.62h29.6q10.06,0,9.07,6.61l-3.74,23.45c-.64,4.19-4.36,6.61-11.07,6.61h-29.6c-6.37,0-10.4,2.21-11.07,6.62l-5.45,34.28c-.63,4.19-4.35,6.62-11.06,6.62h-45c-6.37,0-9.7-2.43-9.06-6.62l21.35-141.16c.66-4.41,4.69-6.62,11.06-6.62Z"/><path class="cls-4" d="M393.17,433.11q10.06,0,9.07,6.62l-15.61,98.18c-.64,4.19,2.69,6.62,9.06,6.62h55.17q10.06,0,9.07,6.62l-3.74,29.74q-1,6.61-11.07,6.62H322.74c-6.38,0-9.7-2.43-9.07-6.62L335,439.73c.67-4.41,4.7-6.62,11.07-6.62Z"/><path class="cls-4" d="M591.23,433.11c63.09,0,81.36,16.76,75.89,52.94l-7.31,48.3c-5.47,36.18-28.84,53.16-91.93,53.16H493c-6.37,0-9.7-2.43-9.06-6.62L505.29,440c.67-4.41,4.36-6.62,11.11-6.84ZM574.62,549.57c16.11,0,24.43-1.76,26.43-15,0-.22,7.31-48.3,7.34-48.52,2.07-13.68-5.78-15-21.89-15H568.38c-6.38,0-10.4,2.2-11.07,6.62L547.43,543c-.63,4.2,2.69,6.62,9.07,6.62Z"/><path class="cls-4" d="M694.85,482.74c2.21-14.56,12.81-53.6,92.34-53.6,71.48,0,77.78,37.21,76.56,54.2-.14,3.09-3.52,5.51-8.32,6.17l-38.08-.15c-7.19.88-12.09-2.21-12.39-6.84-.21-9.71-5.39-15.44-23.51-15.44-24.83,0-28.08,10.37-30.65,27.35L746,526.19c-2.57,17-2.46,27.35,22.37,27.35,18.46,0,24.36-5.73,27.91-15.88,1.71-4.63,7.51-7.5,14.06-6.4l37.08.48c4.6.66,7.25,3.09,6.42,6.39-3.88,16.77-19.72,53.35-91.2,53.35-79.54,0-78.33-39-76.13-53.6Z"/></g></g></svg>